<?xml version="1.0" encoding="UTF-8"?>
<svg id="Ebene_1" xmlns="http://www.w3.org/2000/svg" version="1.1" viewBox="0 0 425.2 425.2">
  <!-- Generator: Adobe Illustrator 29.7.1, SVG Export Plug-In . SVG Version: 2.1.1 Build 8)  -->
  <defs>
    <style>
      .st0 {
        fill: #1d1d1b;
      }
    </style>
  </defs>
  <path class="st0" d="M165.3,163.1l48,55.1h-33.6l-42.4-53.8v53.8h-26.7V63.2h26.7v96l39.4-43.5h33.8l-45.2,47.4Z"/>
  <path class="st0" d="M213.2,148.8h102.5v27.1h-102.5v-27.1Z"/>
  <path class="st0" d="M348.8,306.3c0,31.2-22.2,53.6-48.7,53.6s-25.2-7.5-30.8-15.3v12.7h-26.9v-155h26.9v65.5c5.6-8,15.7-15.5,30.8-15.5,26.5,0,48.7,22.8,48.7,54ZM321,306.3c0-17.7-12.7-28.4-27.8-28.4s-17.9,4.3-23.9,13.1v30.6c6,8.8,14.9,13.1,23.9,13.1,14.9,0,27.8-11,27.8-28.4Z"/>
  <path class="st0" d="M108.2,292.1v-26.9h102.5v26.9h-13.6c8.8,6.7,16.1,16.1,16.1,31,0,22.4-16.1,36.8-44.6,36.8h-60.5v-26.9h56.2c16.6,0,23.3-6.5,23.3-17.4s-6.2-18.5-14-23.5h-65.5Z"/>
  <path class="st0" d="M352.8,145.4c9.5,0,17.2,7.1,17.2,16.8s-7.8,17.7-17.2,17.7-17.2-7.8-17.2-17.7,7.7-16.8,17.2-16.8Z"/>
  <path class="st0" d="M69.9,351.5c-8.2,0-14.2-5.8-14.2-14s6-15.1,14.4-15.1,14.4,6.2,14.4,14.9-6.2,14.2-14.6,14.2Z"/>
  <path class="st0" d="M69.9,302.2c-8.2,0-14.2-5.8-14.2-14s6-14.9,14.4-14.9,14.4,6.2,14.4,14.6-6.2,14.2-14.6,14.2Z"/>
</svg>